<?xml version="1.0" encoding="utf-8"?>
<!DOCTYPE svg PUBLIC "-//W3C//DTD SVG 1.1//EN" "http://www.w3.org/Graphics/SVG/1.1/DTD/svg11.dtd">
<svg version="1.1" id="Warstwa_1" xmlns="http://www.w3.org/2000/svg" xmlns:xlink="http://www.w3.org/1999/xlink" x="0px" y="0px"
	 width="500px" height="500px" viewBox="0 0 500 500" enable-background="new 0 0 500 500" xml:space="preserve">
<path fill="#ffffff" d="M435,236.379c0-0.029,0-0.029,0-0.057c0-0.028-0.191-0.028-0.163-0.056c0-0.056-0.068-0.112-0.068-0.168
	c-14.572-88.338-91.444-155.702-183.885-155.702c-38.524,0-74.406,11.682-104.115,31.731
	c-16.764,11.315-31.628,25.328-43.873,41.361l0.387,0.027c-0.083,0.112,0.038,0.225-0.046,0.337
	C86.979,175.193,75,200.127,70,227.28c0,0.029,0,0.029,0,0.056c-1,0.534-0.434,1.04-0.546,1.573
	c-2.61,12.186-4.429,24.822-4.429,37.737c0,24.181,4.357,47.316,12.752,68.516c10.334,26.144,26.285,49.364,46.559,68.093
	c0.028,0.027,0.042,0.055,0.071,0.085c11.54,10.725,24.45,19.993,38.434,27.518c0.029,0,0.026,0.027,0.053,0.027
	c26.169,14.04,56.074,22.015,87.887,22.015c35.017,0,67.729-9.658,95.666-26.451c13.59-8.142,26.03-17.97,37.064-29.201
	c0.113-0.085,0.198-0.167,0.283-0.282l0.027-0.027l-1.684-2.781c0,0,32.429-27.037,49.052-101.591
	c2.136-9.603,3.943-20.215,5.46-31.478c0,0,0.35,1.714,0.35,4.999v-1.629C437,254.91,437,245.505,435,236.379z M116,283.777
	c-5.308,0-10-4.353-10-9.634v-35.321c0-5.308,4.732-9.632,10.04-9.632c2.639,0,5.205,1.095,6.946,2.835
	c1.741,1.741,3.015,4.156,3.015,6.797v35.321C126,279.425,121.278,283.777,116,283.777z M294.417,106.679
	c-0.422,1.965-2.164,3.313-4.13,3.313c-0.279,0-0.56-0.027-0.869-0.083c-24.15-5.195-48.718-5.477-71.041-0.814
	c-2.274,0.477-4.493-0.983-4.97-3.258c-0.479-2.274,0.982-4.521,3.256-4.998c23.476-4.887,49.252-4.605,74.523,0.814
	C293.463,102.157,294.895,104.404,294.417,106.679z M410.188,327.638c-4.297,14.18-10.417,26.506-18.166,36.644
	c-0.845,1.094-2.106,1.658-3.37,1.658c-0.87,0-1.77-0.282-2.554-0.871c-1.826-1.404-2.193-4.042-0.789-5.896
	c7.162-9.351,12.806-20.779,16.82-33.978c0.674-2.219,3.005-3.479,5.251-2.808C409.599,323.061,410.862,325.419,410.188,327.638z"/>
<path fill="#ffffff" d="M123.257,464.854L123.257,464.854c-11.704-4.974-17.207-18.624-12.231-30.328l13.738-32.308
	c4.976-11.698,18.622-17.204,30.325-12.23l0,0c11.704,4.98,17.207,18.625,12.231,30.328l-13.737,32.309
	C148.607,464.328,134.961,469.829,123.257,464.854z"/>
<path fill="#ffffff" d="M387.905,464.854L387.905,464.854c11.703-4.974,17.207-18.624,12.232-30.328l-13.738-32.308
	c-4.977-11.698-18.624-17.204-30.328-12.23l0,0c-11.703,4.98-17.204,18.625-12.229,30.328l13.738,32.309
	C362.554,464.328,376.201,469.829,387.905,464.854z"/>
<path fill="#ffffff" d="M105.625,335.173l-80.433-0.021c-6.374,0-11.542-5.167-11.542-11.539v-87.145
	c0-5.797,4.7-10.497,10.497-10.497h44.094L105.625,335.173z"/>
<path fill="#ffffff" d="M491.844,238.485c-6.907,14.798-22.142,51.64-54.686,54.053c0.334-9.463-0.158-17.944-0.158-23.503v-0.112
	c0-0.872,0-1.629,0-2.358v-0.478c0-3.285-0.35-4.999-0.35-4.999c-1.517,11.263-3.417,21.875-5.551,31.478
	c-1.349-0.027-2.65-0.364-4.055-0.56l4.042-59.531c0,0,1.159,1.685,3.545,3.791c0.029,0.056,0.094,0.084,0.121,0.113
	c6.823,6.009,23.532,15.022,52.034-2.304C489.734,232.25,493.306,235.339,491.844,238.485z"/>
<path fill="#ffffff" d="M105.942,159.786L84.69,116.551c-2.671-5.435,1.747-11.665,7.759-10.944l54.961,6.595
	c6.178,0.742,8.92,8.167,4.708,12.746l-33.711,36.641C114.776,165.537,108.31,164.603,105.942,159.786z"/>
<path fill="#ffffff" d="M372.097,46.806l6.921-12.654c1.338-2.443,4.843-2.443,6.181,0l6.922,12.654
	c0.323,0.591,0.806,1.076,1.398,1.4l12.652,6.921c2.445,1.335,2.445,4.844,0,6.18l-12.652,6.921
	c-0.593,0.322-1.075,0.809-1.398,1.399l-6.922,12.654c-1.338,2.442-4.843,2.442-6.181,0l-6.921-12.654
	c-0.323-0.591-0.807-1.078-1.398-1.399l-12.652-6.921c-2.446-1.335-2.446-4.844,0-6.18l12.652-6.921
	C371.29,47.882,371.773,47.396,372.097,46.806z"/>
<path fill="#ffffff" d="M21.691,142.49l5.701-10.426c1.101-2.013,3.993-2.013,5.094,0l5.702,10.426
	c0.266,0.487,0.667,0.887,1.153,1.153l10.425,5.702c2.013,1.101,2.013,3.993,0,5.092l-10.425,5.703
	c-0.487,0.266-0.887,0.667-1.153,1.154l-5.702,10.426c-1.101,2.013-3.993,2.013-5.094,0l-5.701-10.426
	c-0.268-0.488-0.668-0.888-1.155-1.154l-10.425-5.703c-2.013-1.099-2.013-3.991,0-5.092l10.425-5.702
	C21.023,143.377,21.423,142.977,21.691,142.49z"/>
<circle fill="#ffffff" cx="413.451" cy="100.733" r="9.633"/>
</svg>
